<mxfile host="app.diagrams.net" modified="2023-08-14T07:36:40.214Z" agent="Mozilla/5.0 (X11; Linux x86_64; rv:109.0) Gecko/20100101 Firefox/116.0" etag="ILZKFmG2ze0ByL6Ie0Ff" version="21.6.8" type="github">
  <diagram name="Page-1" id="c7558073-3199-34d8-9f00-42111426c3f3">
    <mxGraphModel dx="1562" dy="1538" grid="1" gridSize="10" guides="1" tooltips="1" connect="1" arrows="1" fold="1" page="1" pageScale="1" pageWidth="826" pageHeight="1169" background="none" math="0" shadow="0">
      <root>
        <mxCell id="0" />
        <mxCell id="1" parent="0" />
        <mxCell id="Ijv4X9swHwSDKoMC9AaC-178" value="" style="rounded=0;whiteSpace=wrap;html=1;" vertex="1" parent="1">
          <mxGeometry x="40" y="60" width="450" height="220" as="geometry" />
        </mxCell>
        <mxCell id="Ijv4X9swHwSDKoMC9AaC-96" value="" style="rounded=0;whiteSpace=wrap;html=1;" vertex="1" parent="1">
          <mxGeometry x="186.5" y="150" width="120" height="60" as="geometry" />
        </mxCell>
        <mxCell id="Ijv4X9swHwSDKoMC9AaC-97" value="" style="endArrow=classic;html=1;rounded=0;" edge="1" parent="1">
          <mxGeometry relative="1" as="geometry">
            <mxPoint x="306.5" y="179.5" as="sourcePoint" />
            <mxPoint x="426.5" y="180" as="targetPoint" />
          </mxGeometry>
        </mxCell>
        <mxCell id="Ijv4X9swHwSDKoMC9AaC-99" value=".deb file" style="edgeLabel;resizable=0;html=1;align=left;verticalAlign=bottom;" connectable="0" vertex="1" parent="Ijv4X9swHwSDKoMC9AaC-97">
          <mxGeometry x="-1" relative="1" as="geometry">
            <mxPoint x="70" y="-9" as="offset" />
          </mxGeometry>
        </mxCell>
        <mxCell id="Ijv4X9swHwSDKoMC9AaC-100" value="" style="endArrow=classic;html=1;rounded=0;" edge="1" parent="1">
          <mxGeometry relative="1" as="geometry">
            <mxPoint x="360" y="482.67" as="sourcePoint" />
            <mxPoint x="460" y="482.67" as="targetPoint" />
          </mxGeometry>
        </mxCell>
        <mxCell id="Ijv4X9swHwSDKoMC9AaC-104" value="&lt;div&gt;Prompt&lt;/div&gt;" style="edgeLabel;html=1;align=center;verticalAlign=middle;resizable=0;points=[];" vertex="1" connectable="0" parent="Ijv4X9swHwSDKoMC9AaC-100">
          <mxGeometry x="0.12" y="-3" relative="1" as="geometry">
            <mxPoint x="-36" y="-13" as="offset" />
          </mxGeometry>
        </mxCell>
        <mxCell id="Ijv4X9swHwSDKoMC9AaC-102" value="" style="endArrow=classic;html=1;rounded=0;" edge="1" parent="1">
          <mxGeometry relative="1" as="geometry">
            <mxPoint x="360" y="802.67" as="sourcePoint" />
            <mxPoint x="460" y="802.67" as="targetPoint" />
          </mxGeometry>
        </mxCell>
        <mxCell id="Ijv4X9swHwSDKoMC9AaC-103" value="&lt;div&gt;Git link&lt;/div&gt;" style="edgeLabel;resizable=0;html=1;align=center;verticalAlign=middle;" connectable="0" vertex="1" parent="Ijv4X9swHwSDKoMC9AaC-102">
          <mxGeometry relative="1" as="geometry">
            <mxPoint x="-30" y="-10" as="offset" />
          </mxGeometry>
        </mxCell>
        <mxCell id="Ijv4X9swHwSDKoMC9AaC-105" value="" style="shape=image;html=1;verticalLabelPosition=bottom;verticalAlign=top;imageAspect=0;image=img/clipart/Gear_128x128.png" vertex="1" parent="1">
          <mxGeometry x="221.5" y="150" width="50" height="60" as="geometry" />
        </mxCell>
        <mxCell id="Ijv4X9swHwSDKoMC9AaC-106" value="&lt;div style=&quot;font-size: 14px;&quot;&gt;&lt;font style=&quot;font-size: 18px;&quot;&gt;&lt;u&gt;Goal of Hackathon&lt;/u&gt;&lt;/font&gt;&lt;/div&gt;" style="text;html=1;strokeColor=none;fillColor=none;align=center;verticalAlign=middle;whiteSpace=wrap;rounded=0;fontSize=13;" vertex="1" parent="1">
          <mxGeometry x="161.5" y="90" width="170" height="30" as="geometry" />
        </mxCell>
        <mxCell id="Ijv4X9swHwSDKoMC9AaC-112" value="" style="endArrow=classic;html=1;rounded=0;" edge="1" parent="1">
          <mxGeometry relative="1" as="geometry">
            <mxPoint x="86.5" y="170" as="sourcePoint" />
            <mxPoint x="186.5" y="170" as="targetPoint" />
          </mxGeometry>
        </mxCell>
        <mxCell id="Ijv4X9swHwSDKoMC9AaC-113" value="&lt;div&gt;Prompt&lt;/div&gt;" style="edgeLabel;html=1;align=center;verticalAlign=middle;resizable=0;points=[];" vertex="1" connectable="0" parent="Ijv4X9swHwSDKoMC9AaC-112">
          <mxGeometry x="0.12" y="-3" relative="1" as="geometry">
            <mxPoint x="-36" y="-13" as="offset" />
          </mxGeometry>
        </mxCell>
        <mxCell id="Ijv4X9swHwSDKoMC9AaC-114" value="" style="endArrow=classic;html=1;rounded=0;" edge="1" parent="1">
          <mxGeometry relative="1" as="geometry">
            <mxPoint x="86.5" y="190" as="sourcePoint" />
            <mxPoint x="186.5" y="190" as="targetPoint" />
          </mxGeometry>
        </mxCell>
        <mxCell id="Ijv4X9swHwSDKoMC9AaC-115" value="&lt;div&gt;Git link&lt;/div&gt;" style="edgeLabel;resizable=0;html=1;align=center;verticalAlign=middle;" connectable="0" vertex="1" parent="Ijv4X9swHwSDKoMC9AaC-114">
          <mxGeometry relative="1" as="geometry">
            <mxPoint x="-30" y="-10" as="offset" />
          </mxGeometry>
        </mxCell>
        <mxCell id="Ijv4X9swHwSDKoMC9AaC-173" style="edgeStyle=orthogonalEdgeStyle;rounded=0;orthogonalLoop=1;jettySize=auto;html=1;exitX=0;exitY=0.5;exitDx=0;exitDy=0;entryX=0.993;entryY=0.458;entryDx=0;entryDy=0;entryPerimeter=0;" edge="1" parent="1" source="Ijv4X9swHwSDKoMC9AaC-117" target="Ijv4X9swHwSDKoMC9AaC-132">
          <mxGeometry relative="1" as="geometry" />
        </mxCell>
        <mxCell id="Ijv4X9swHwSDKoMC9AaC-175" style="edgeStyle=orthogonalEdgeStyle;rounded=0;orthogonalLoop=1;jettySize=auto;html=1;exitX=1;exitY=0.25;exitDx=0;exitDy=0;entryX=0;entryY=0.25;entryDx=0;entryDy=0;" edge="1" parent="1" source="Ijv4X9swHwSDKoMC9AaC-117" target="Ijv4X9swHwSDKoMC9AaC-151">
          <mxGeometry relative="1" as="geometry" />
        </mxCell>
        <mxCell id="Ijv4X9swHwSDKoMC9AaC-117" value="&lt;div&gt;Agent&lt;/div&gt;" style="rounded=1;whiteSpace=wrap;html=1;" vertex="1" parent="1">
          <mxGeometry x="650" y="572.67" width="120" height="100" as="geometry" />
        </mxCell>
        <mxCell id="Ijv4X9swHwSDKoMC9AaC-118" value="&lt;b&gt;&lt;u&gt;&lt;font style=&quot;font-size: 16px;&quot;&gt;Keyword of #brainstroming channel:&lt;/font&gt;&lt;/u&gt;&lt;/b&gt;" style="text;html=1;strokeColor=none;fillColor=none;align=center;verticalAlign=middle;whiteSpace=wrap;rounded=0;" vertex="1" parent="1">
          <mxGeometry x="40" y="1040" width="280" height="30" as="geometry" />
        </mxCell>
        <mxCell id="Ijv4X9swHwSDKoMC9AaC-119" value="" style="endArrow=none;html=1;rounded=0;" edge="1" parent="1">
          <mxGeometry width="50" height="50" relative="1" as="geometry">
            <mxPoint x="40" y="1040" as="sourcePoint" />
            <mxPoint x="1600" y="1040" as="targetPoint" />
          </mxGeometry>
        </mxCell>
        <mxCell id="Ijv4X9swHwSDKoMC9AaC-120" value="" style="rounded=0;whiteSpace=wrap;html=1;" vertex="1" parent="1">
          <mxGeometry x="1200" y="920" width="440" height="90" as="geometry" />
        </mxCell>
        <mxCell id="Ijv4X9swHwSDKoMC9AaC-121" value="Version 0.1" style="rounded=0;whiteSpace=wrap;html=1;" vertex="1" parent="1">
          <mxGeometry x="1510" y="970" width="120" height="30" as="geometry" />
        </mxCell>
        <mxCell id="Ijv4X9swHwSDKoMC9AaC-122" value="08/2023" style="rounded=0;whiteSpace=wrap;html=1;" vertex="1" parent="1">
          <mxGeometry x="1510" y="930" width="120" height="30" as="geometry" />
        </mxCell>
        <mxCell id="Ijv4X9swHwSDKoMC9AaC-123" value="&lt;div&gt;Las Mofifications By:&lt;/div&gt;&lt;div&gt;Stephan.B&lt;br&gt;&lt;/div&gt;" style="rounded=0;whiteSpace=wrap;html=1;" vertex="1" parent="1">
          <mxGeometry x="1220" y="935" width="270" height="60" as="geometry" />
        </mxCell>
        <mxCell id="Ijv4X9swHwSDKoMC9AaC-126" value="Using AgentSpeak&lt;span style=&quot;margin: 0px; padding: 0px; border: 0px; font-weight: 400; font-style: normal; font-family: &amp;quot;gg sans&amp;quot;, &amp;quot;Noto Sans&amp;quot;, &amp;quot;Helvetica Neue&amp;quot;, Helvetica, Arial, sans-serif; font-size: 16px; vertical-align: baseline; outline: 0px; font-variant-ligatures: normal; font-variant-caps: normal; letter-spacing: normal; text-align: left; text-indent: 0px; text-transform: none; word-spacing: 0px; -webkit-text-stroke-width: 0px; background-color: rgba(2, 2, 2, 0.06); text-decoration-thickness: initial; text-decoration-style: initial; text-decoration-color: initial;&quot;&gt;(L&lt;/span&gt;&lt;span style=&quot;margin: 0px; padding: 0px; border: 0px; font-weight: 400; font-style: normal; font-family: &amp;quot;gg sans&amp;quot;, &amp;quot;Noto Sans&amp;quot;, &amp;quot;Helvetica Neue&amp;quot;, Helvetica, Arial, sans-serif; font-size: 16px; vertical-align: baseline; outline: 0px; font-variant-ligatures: normal; font-variant-caps: normal; letter-spacing: normal; text-align: left; text-indent: 0px; text-transform: none; word-spacing: 0px; -webkit-text-stroke-width: 0px; background-color: rgba(2, 2, 2, 0.06); text-decoration-thickness: initial; text-decoration-style: initial; text-decoration-color: initial;&quot;&gt;) to manage the LLM agent&lt;/span&gt;&lt;span style=&quot;margin: 0px; padding: 0px; border: 0px; font-weight: 400; font-style: normal; font-family: &amp;quot;gg sans&amp;quot;, &amp;quot;Noto Sans&amp;quot;, &amp;quot;Helvetica Neue&amp;quot;, Helvetica, Arial, sans-serif; font-size: 16px; vertical-align: baseline; outline: 0px; font-variant-ligatures: normal; font-variant-caps: normal; letter-spacing: normal; text-align: left; text-indent: 0px; text-transform: none; word-spacing: 0px; -webkit-text-stroke-width: 0px; background-color: rgba(2, 2, 2, 0.06); text-decoration-thickness: initial; text-decoration-style: initial; text-decoration-color: initial;&quot;&gt;.&lt;/span&gt;" style="text;html=1;strokeColor=none;fillColor=none;align=center;verticalAlign=middle;whiteSpace=wrap;rounded=0;fontColor=default;" vertex="1" parent="1">
          <mxGeometry x="40" y="1080" width="386.5" height="30" as="geometry" />
        </mxCell>
        <mxCell id="Ijv4X9swHwSDKoMC9AaC-127" value="LLM to be the muscles and Agentspeak to be the skeleton" style="text;html=1;strokeColor=none;fillColor=none;align=center;verticalAlign=middle;whiteSpace=wrap;rounded=0;" vertex="1" parent="1">
          <mxGeometry x="53" y="1120" width="360" height="30" as="geometry" />
        </mxCell>
        <mxCell id="Ijv4X9swHwSDKoMC9AaC-128" value="the wheel of an action &lt;span style=&quot;margin: 0px; padding: 0px; border: 0px; font-weight: 400; font-style: normal; font-family: &amp;quot;gg sans&amp;quot;, &amp;quot;Noto Sans&amp;quot;, &amp;quot;Helvetica Neue&amp;quot;, Helvetica, Arial, sans-serif; font-size: 16px; vertical-align: baseline; outline: 0px; font-variant-ligatures: normal; font-variant-caps: normal; letter-spacing: normal; text-align: left; text-indent: 0px; text-transform: none; word-spacing: 0px; -webkit-text-stroke-width: 0px; background-color: rgba(2, 2, 2, 0.06); text-decoration-thickness: initial; text-decoration-style: initial; text-decoration-color: initial;&quot;&gt;- event &lt;/span&gt;&lt;span style=&quot;margin: 0px; padding: 0px; border: 0px; font-weight: 400; font-style: normal; font-family: &amp;quot;gg sans&amp;quot;, &amp;quot;Noto Sans&amp;quot;, &amp;quot;Helvetica Neue&amp;quot;, Helvetica, Arial, sans-serif; font-size: 16px; vertical-align: baseline; outline: 0px; font-variant-ligatures: normal; font-variant-caps: normal; letter-spacing: normal; text-align: left; text-indent: 0px; text-transform: none; word-spacing: 0px; -webkit-text-stroke-width: 0px; background-color: rgba(2, 2, 2, 0.06); text-decoration-thickness: initial; text-decoration-style: initial; text-decoration-color: initial;&quot;&gt;- response &lt;/span&gt;&lt;span style=&quot;margin: 0px; padding: 0px; border: 0px; font-weight: 400; font-style: normal; font-family: &amp;quot;gg sans&amp;quot;, &amp;quot;Noto Sans&amp;quot;, &amp;quot;Helvetica Neue&amp;quot;, Helvetica, Arial, sans-serif; font-size: 16px; vertical-align: baseline; outline: 0px; font-variant-ligatures: normal; font-variant-caps: normal; letter-spacing: normal; text-align: left; text-indent: 0px; text-transform: none; word-spacing: 0px; -webkit-text-stroke-width: 0px; background-color: rgba(2, 2, 2, 0.06); text-decoration-thickness: initial; text-decoration-style: initial; text-decoration-color: initial;&quot;&gt;-&lt;/span&gt;&lt;span style=&quot;margin: 0px; padding: 0px; border: 0px; font-weight: 400; font-style: normal; font-family: &amp;quot;gg sans&amp;quot;, &amp;quot;Noto Sans&amp;quot;, &amp;quot;Helvetica Neue&amp;quot;, Helvetica, Arial, sans-serif; font-size: 16px; vertical-align: baseline; outline: 0px; font-variant-ligatures: normal; font-variant-caps: normal; letter-spacing: normal; text-align: left; text-indent: 0px; text-transform: none; word-spacing: 0px; -webkit-text-stroke-width: 0px; background-color: rgba(2, 2, 2, 0.06); text-decoration-thickness: initial; text-decoration-style: initial; text-decoration-color: initial;&quot;&gt;- action &lt;/span&gt;&lt;span style=&quot;margin: 0px; padding: 0px; border: 0px; font-weight: 400; font-style: normal; font-family: &amp;quot;gg sans&amp;quot;, &amp;quot;Noto Sans&amp;quot;, &amp;quot;Helvetica Neue&amp;quot;, Helvetica, Arial, sans-serif; font-size: 16px; vertical-align: baseline; outline: 0px; font-variant-ligatures: normal; font-variant-caps: normal; letter-spacing: normal; text-align: left; text-indent: 0px; text-transform: none; word-spacing: 0px; -webkit-text-stroke-width: 0px; background-color: rgba(2, 2, 2, 0.06); text-decoration-thickness: initial; text-decoration-style: initial; text-decoration-color: initial;&quot;&gt;-&lt;/span&gt;&lt;span style=&quot;margin: 0px; padding: 0px; border: 0px; font-weight: 400; font-style: normal; font-family: &amp;quot;gg sans&amp;quot;, &amp;quot;Noto Sans&amp;quot;, &amp;quot;Helvetica Neue&amp;quot;, Helvetica, Arial, sans-serif; font-size: 16px; vertical-align: baseline; outline: 0px; font-variant-ligatures: normal; font-variant-caps: normal; letter-spacing: normal; text-align: left; text-indent: 0px; text-transform: none; word-spacing: 0px; -webkit-text-stroke-width: 0px; background-color: rgba(2, 2, 2, 0.06); text-decoration-thickness: initial; text-decoration-style: initial; text-decoration-color: initial;&quot;&gt;- event &lt;/span&gt;&lt;span style=&quot;margin: 0px; padding: 0px; border: 0px; font-weight: 400; font-style: normal; font-family: &amp;quot;gg sans&amp;quot;, &amp;quot;Noto Sans&amp;quot;, &amp;quot;Helvetica Neue&amp;quot;, Helvetica, Arial, sans-serif; font-size: 16px; vertical-align: baseline; outline: 0px; font-variant-ligatures: normal; font-variant-caps: normal; letter-spacing: normal; text-align: left; text-indent: 0px; text-transform: none; word-spacing: 0px; -webkit-text-stroke-width: 0px; background-color: rgba(2, 2, 2, 0.06); text-decoration-thickness: initial; text-decoration-style: initial; text-decoration-color: initial;&quot;&gt;- response &lt;/span&gt;&lt;span style=&quot;margin: 0px; padding: 0px; border: 0px; font-weight: 400; font-style: normal; font-family: &amp;quot;gg sans&amp;quot;, &amp;quot;Noto Sans&amp;quot;, &amp;quot;Helvetica Neue&amp;quot;, Helvetica, Arial, sans-serif; font-size: 16px; vertical-align: baseline; outline: 0px; font-variant-ligatures: normal; font-variant-caps: normal; letter-spacing: normal; text-align: left; text-indent: 0px; text-transform: none; word-spacing: 0px; -webkit-text-stroke-width: 0px; background-color: rgba(2, 2, 2, 0.06); text-decoration-thickness: initial; text-decoration-style: initial; text-decoration-color: initial;&quot;&gt;- action &lt;/span&gt;&lt;span style=&quot;margin: 0px; padding: 0px; border: 0px; font-weight: 400; font-style: normal; font-family: &amp;quot;gg sans&amp;quot;, &amp;quot;Noto Sans&amp;quot;, &amp;quot;Helvetica Neue&amp;quot;, Helvetica, Arial, sans-serif; font-size: 16px; vertical-align: baseline; outline: 0px; font-variant-ligatures: normal; font-variant-caps: normal; letter-spacing: normal; text-align: left; text-indent: 0px; text-transform: none; word-spacing: 0px; -webkit-text-stroke-width: 0px; background-color: rgba(2, 2, 2, 0.06); text-decoration-thickness: initial; text-decoration-style: initial; text-decoration-color: initial;&quot;&gt;-&lt;/span&gt;&lt;span style=&quot;margin: 0px; padding: 0px; border: 0px; font-weight: 400; font-style: normal; font-family: &amp;quot;gg sans&amp;quot;, &amp;quot;Noto Sans&amp;quot;, &amp;quot;Helvetica Neue&amp;quot;, Helvetica, Arial, sans-serif; font-size: 16px; vertical-align: baseline; outline: 0px; font-variant-ligatures: normal; font-variant-caps: normal; letter-spacing: normal; text-align: left; text-indent: 0px; text-transform: none; word-spacing: 0px; -webkit-text-stroke-width: 0px; background-color: rgba(2, 2, 2, 0.06); text-decoration-thickness: initial; text-decoration-style: initial; text-decoration-color: initial;&quot;&gt;-event &lt;/span&gt;&lt;span style=&quot;margin: 0px; padding: 0px; border: 0px; font-weight: 400; font-style: normal; font-family: &amp;quot;gg sans&amp;quot;, &amp;quot;Noto Sans&amp;quot;, &amp;quot;Helvetica Neue&amp;quot;, Helvetica, Arial, sans-serif; font-size: 16px; vertical-align: baseline; outline: 0px; font-variant-ligatures: normal; font-variant-caps: normal; letter-spacing: normal; text-align: left; text-indent: 0px; text-transform: none; word-spacing: 0px; -webkit-text-stroke-width: 0px; background-color: rgba(2, 2, 2, 0.06); text-decoration-thickness: initial; text-decoration-style: initial; text-decoration-color: initial;&quot;&gt;-&lt;/span&gt;&lt;span style=&quot;margin: 0px; padding: 0px; border: 0px; font-weight: 400; font-style: normal; font-family: &amp;quot;gg sans&amp;quot;, &amp;quot;Noto Sans&amp;quot;, &amp;quot;Helvetica Neue&amp;quot;, Helvetica, Arial, sans-serif; font-size: 16px; vertical-align: baseline; outline: 0px; font-variant-ligatures: normal; font-variant-caps: normal; letter-spacing: normal; text-align: left; text-indent: 0px; text-transform: none; word-spacing: 0px; -webkit-text-stroke-width: 0px; background-color: rgba(2, 2, 2, 0.06); text-decoration-thickness: initial; text-decoration-style: initial; text-decoration-color: initial;&quot;&gt;- conclusion &lt;/span&gt;&lt;span style=&quot;margin: 0px; padding: 0px; border: 0px; font-weight: 400; font-style: normal; font-family: &amp;quot;gg sans&amp;quot;, &amp;quot;Noto Sans&amp;quot;, &amp;quot;Helvetica Neue&amp;quot;, Helvetica, Arial, sans-serif; font-size: 16px; vertical-align: baseline; outline: 0px; font-variant-ligatures: normal; font-variant-caps: normal; letter-spacing: normal; text-align: left; text-indent: 0px; text-transform: none; word-spacing: 0px; -webkit-text-stroke-width: 0px; background-color: rgba(2, 2, 2, 0.06); text-decoration-thickness: initial; text-decoration-style: initial; text-decoration-color: initial;&quot;&gt;-&lt;/span&gt;&lt;span style=&quot;margin: 0px; padding: 0px; border: 0px; font-weight: 400; font-style: normal; font-family: &amp;quot;gg sans&amp;quot;, &amp;quot;Noto Sans&amp;quot;, &amp;quot;Helvetica Neue&amp;quot;, Helvetica, Arial, sans-serif; font-size: 16px; vertical-align: baseline; outline: 0px; font-variant-ligatures: normal; font-variant-caps: normal; letter-spacing: normal; text-align: left; text-indent: 0px; text-transform: none; word-spacing: 0px; -webkit-text-stroke-width: 0px; background-color: rgba(2, 2, 2, 0.06); text-decoration-thickness: initial; text-decoration-style: initial; text-decoration-color: initial;&quot;&gt;-&lt;/span&gt;&lt;span style=&quot;margin: 0px; padding: 0px; border: 0px; font-weight: 400; font-style: normal; font-family: &amp;quot;gg sans&amp;quot;, &amp;quot;Noto Sans&amp;quot;, &amp;quot;Helvetica Neue&amp;quot;, Helvetica, Arial, sans-serif; font-size: 16px; vertical-align: baseline; outline: 0px; font-variant-ligatures: normal; font-variant-caps: normal; letter-spacing: normal; text-align: left; text-indent: 0px; text-transform: none; word-spacing: 0px; -webkit-text-stroke-width: 0px; background-color: rgba(2, 2, 2, 0.06); text-decoration-thickness: initial; text-decoration-style: initial; text-decoration-color: initial;&quot;&gt;&amp;gt; outputsolvedbuild &lt;/span&gt;&lt;span style=&quot;margin: 0px; padding: 0px; border: 0px; font-weight: 400; font-style: normal; font-family: &amp;quot;gg sans&amp;quot;, &amp;quot;Noto Sans&amp;quot;, &amp;quot;Helvetica Neue&amp;quot;, Helvetica, Arial, sans-serif; font-size: 16px; vertical-align: baseline; outline: 0px; font-variant-ligatures: normal; font-variant-caps: normal; letter-spacing: normal; text-align: left; text-indent: 0px; text-transform: none; word-spacing: 0px; -webkit-text-stroke-width: 0px; background-color: rgba(2, 2, 2, 0.06); text-decoration-thickness: initial; text-decoration-style: initial; text-decoration-color: initial;&quot;&gt;-&lt;/span&gt;&lt;span style=&quot;margin: 0px; padding: 0px; border: 0px; font-weight: 400; font-style: normal; font-family: &amp;quot;gg sans&amp;quot;, &amp;quot;Noto Sans&amp;quot;, &amp;quot;Helvetica Neue&amp;quot;, Helvetica, Arial, sans-serif; font-size: 16px; vertical-align: baseline; outline: 0px; font-variant-ligatures: normal; font-variant-caps: normal; letter-spacing: normal; text-align: left; text-indent: 0px; text-transform: none; word-spacing: 0px; -webkit-text-stroke-width: 0px; background-color: rgba(2, 2, 2, 0.06); text-decoration-thickness: initial; text-decoration-style: initial; text-decoration-color: initial;&quot;&gt;-&lt;/span&gt;&lt;span style=&quot;margin: 0px; padding: 0px; border: 0px; font-weight: 400; font-style: normal; font-family: &amp;quot;gg sans&amp;quot;, &amp;quot;Noto Sans&amp;quot;, &amp;quot;Helvetica Neue&amp;quot;, Helvetica, Arial, sans-serif; font-size: 16px; vertical-align: baseline; outline: 0px; font-variant-ligatures: normal; font-variant-caps: normal; letter-spacing: normal; text-align: left; text-indent: 0px; text-transform: none; word-spacing: 0px; -webkit-text-stroke-width: 0px; background-color: rgba(2, 2, 2, 0.06); text-decoration-thickness: initial; text-decoration-style: initial; text-decoration-color: initial;&quot;&gt;&amp;gt; create agent&lt;/span&gt;&lt;span style=&quot;margin: 0px; padding: 0px; border: 0px; font-weight: 400; font-style: normal; font-family: &amp;quot;gg sans&amp;quot;, &amp;quot;Noto Sans&amp;quot;, &amp;quot;Helvetica Neue&amp;quot;, Helvetica, Arial, sans-serif; font-size: 16px; vertical-align: baseline; outline: 0px; font-variant-ligatures: normal; font-variant-caps: normal; letter-spacing: normal; text-align: left; text-indent: 0px; text-transform: none; word-spacing: 0px; -webkit-text-stroke-width: 0px; background-color: rgba(2, 2, 2, 0.06); text-decoration-thickness: initial; text-decoration-style: initial; text-decoration-color: initial;&quot;&gt;.event&lt;/span&gt;&lt;span style=&quot;margin: 0px; padding: 0px; border: 0px; font-weight: 400; font-style: normal; font-family: &amp;quot;gg sans&amp;quot;, &amp;quot;Noto Sans&amp;quot;, &amp;quot;Helvetica Neue&amp;quot;, Helvetica, Arial, sans-serif; font-size: 16px; vertical-align: baseline; outline: 0px; font-variant-ligatures: normal; font-variant-caps: normal; letter-spacing: normal; text-align: left; text-indent: 0px; text-transform: none; word-spacing: 0px; -webkit-text-stroke-width: 0px; background-color: rgba(2, 2, 2, 0.06); text-decoration-thickness: initial; text-decoration-style: initial; text-decoration-color: initial;&quot;&gt;.solved  &lt;/span&gt;&lt;span style=&quot;margin: 0px; padding: 0px; border: 0px; font-weight: 400; font-style: normal; font-family: &amp;quot;gg sans&amp;quot;, &amp;quot;Noto Sans&amp;quot;, &amp;quot;Helvetica Neue&amp;quot;, Helvetica, Arial, sans-serif; font-size: 16px; vertical-align: baseline; outline: 0px; font-variant-ligatures: normal; font-variant-caps: normal; letter-spacing: normal; text-align: left; text-indent: 0px; text-transform: none; word-spacing: 0px; -webkit-text-stroke-width: 0px; background-color: rgba(2, 2, 2, 0.06); text-decoration-thickness: initial; text-decoration-style: initial; text-decoration-color: initial;&quot;&gt;-&lt;/span&gt;&lt;span style=&quot;margin: 0px; padding: 0px; border: 0px; font-weight: 400; font-style: normal; font-family: &amp;quot;gg sans&amp;quot;, &amp;quot;Noto Sans&amp;quot;, &amp;quot;Helvetica Neue&amp;quot;, Helvetica, Arial, sans-serif; font-size: 16px; vertical-align: baseline; outline: 0px; font-variant-ligatures: normal; font-variant-caps: normal; letter-spacing: normal; text-align: left; text-indent: 0px; text-transform: none; word-spacing: 0px; -webkit-text-stroke-width: 0px; background-color: rgba(2, 2, 2, 0.06); text-decoration-thickness: initial; text-decoration-style: initial; text-decoration-color: initial;&quot;&gt;-&lt;/span&gt;&lt;span style=&quot;margin: 0px; padding: 0px; border: 0px; font-weight: 400; font-style: normal; font-family: &amp;quot;gg sans&amp;quot;, &amp;quot;Noto Sans&amp;quot;, &amp;quot;Helvetica Neue&amp;quot;, Helvetica, Arial, sans-serif; font-size: 16px; vertical-align: baseline; outline: 0px; font-variant-ligatures: normal; font-variant-caps: normal; letter-spacing: normal; text-align: left; text-indent: 0px; text-transform: none; word-spacing: 0px; -webkit-text-stroke-width: 0px; background-color: rgba(2, 2, 2, 0.06); text-decoration-thickness: initial; text-decoration-style: initial; text-decoration-color: initial;&quot;&gt;&amp;gt; save to memory as agent&lt;/span&gt;&lt;span style=&quot;margin: 0px; padding: 0px; border: 0px; font-weight: 400; font-style: normal; font-family: &amp;quot;gg sans&amp;quot;, &amp;quot;Noto Sans&amp;quot;, &amp;quot;Helvetica Neue&amp;quot;, Helvetica, Arial, sans-serif; font-size: 16px; vertical-align: baseline; outline: 0px; font-variant-ligatures: normal; font-variant-caps: normal; letter-spacing: normal; text-align: left; text-indent: 0px; text-transform: none; word-spacing: 0px; -webkit-text-stroke-width: 0px; background-color: rgba(2, 2, 2, 0.06); text-decoration-thickness: initial; text-decoration-style: initial; text-decoration-color: initial;&quot;&gt;.builds&lt;/span&gt;&lt;span style=&quot;margin: 0px; padding: 0px; border: 0px; font-weight: 400; font-style: normal; font-family: &amp;quot;gg sans&amp;quot;, &amp;quot;Noto Sans&amp;quot;, &amp;quot;Helvetica Neue&amp;quot;, Helvetica, Arial, sans-serif; font-size: 16px; vertical-align: baseline; outline: 0px; font-variant-ligatures: normal; font-variant-caps: normal; letter-spacing: normal; text-align: left; text-indent: 0px; text-transform: none; word-spacing: 0px; -webkit-text-stroke-width: 0px; background-color: rgba(2, 2, 2, 0.06); text-decoration-thickness: initial; text-decoration-style: initial; text-decoration-color: initial;&quot;&gt;.that&lt;/span&gt;&lt;span style=&quot;margin: 0px; padding: 0px; border: 0px; font-weight: 400; font-style: normal; font-family: &amp;quot;gg sans&amp;quot;, &amp;quot;Noto Sans&amp;quot;, &amp;quot;Helvetica Neue&amp;quot;, Helvetica, Arial, sans-serif; font-size: 16px; vertical-align: baseline; outline: 0px; font-variant-ligatures: normal; font-variant-caps: normal; letter-spacing: normal; text-align: left; text-indent: 0px; text-transform: none; word-spacing: 0px; -webkit-text-stroke-width: 0px; background-color: rgba(2, 2, 2, 0.06); text-decoration-thickness: initial; text-decoration-style: initial; text-decoration-color: initial;&quot;&gt;.part&lt;/span&gt;" style="text;html=1;strokeColor=none;fillColor=none;align=center;verticalAlign=middle;whiteSpace=wrap;rounded=0;" vertex="1" parent="1">
          <mxGeometry x="532" y="1040" width="870" height="110" as="geometry" />
        </mxCell>
        <mxCell id="Ijv4X9swHwSDKoMC9AaC-132" value="" style="rounded=1;whiteSpace=wrap;html=1;" vertex="1" parent="1">
          <mxGeometry x="467" y="402.67" width="120" height="480" as="geometry" />
        </mxCell>
        <mxCell id="Ijv4X9swHwSDKoMC9AaC-133" value="UIUX" style="text;html=1;strokeColor=none;fillColor=none;align=center;verticalAlign=middle;whiteSpace=wrap;rounded=0;" vertex="1" parent="1">
          <mxGeometry x="497" y="611.67" width="60" height="30" as="geometry" />
        </mxCell>
        <mxCell id="Ijv4X9swHwSDKoMC9AaC-134" value="" style="shape=cylinder3;whiteSpace=wrap;html=1;boundedLbl=1;backgroundOutline=1;size=15;" vertex="1" parent="1">
          <mxGeometry x="675" y="352.67" width="60" height="80" as="geometry" />
        </mxCell>
        <mxCell id="Ijv4X9swHwSDKoMC9AaC-135" value="&lt;div&gt;Memory&lt;/div&gt;" style="text;html=1;strokeColor=none;fillColor=none;align=center;verticalAlign=middle;whiteSpace=wrap;rounded=0;" vertex="1" parent="1">
          <mxGeometry x="675" y="322.67" width="60" height="30" as="geometry" />
        </mxCell>
        <mxCell id="Ijv4X9swHwSDKoMC9AaC-154" style="edgeStyle=orthogonalEdgeStyle;rounded=0;orthogonalLoop=1;jettySize=auto;html=1;entryX=0.5;entryY=0;entryDx=0;entryDy=0;" edge="1" parent="1" source="Ijv4X9swHwSDKoMC9AaC-136" target="Ijv4X9swHwSDKoMC9AaC-151">
          <mxGeometry relative="1" as="geometry" />
        </mxCell>
        <mxCell id="Ijv4X9swHwSDKoMC9AaC-136" value="compile" style="shape=process;whiteSpace=wrap;html=1;backgroundOutline=1;" vertex="1" parent="1">
          <mxGeometry x="907" y="402.67" width="120" height="60" as="geometry" />
        </mxCell>
        <mxCell id="Ijv4X9swHwSDKoMC9AaC-145" value="" style="shape=flexArrow;endArrow=classic;startArrow=classic;html=1;rounded=0;width=14.117647058823529;startSize=10.870588235294118;exitX=0.5;exitY=0;exitDx=0;exitDy=0;" edge="1" parent="1" source="Ijv4X9swHwSDKoMC9AaC-117">
          <mxGeometry width="100" height="100" relative="1" as="geometry">
            <mxPoint x="757" y="552.67" as="sourcePoint" />
            <mxPoint x="707" y="432.67" as="targetPoint" />
          </mxGeometry>
        </mxCell>
        <mxCell id="Ijv4X9swHwSDKoMC9AaC-172" style="edgeStyle=orthogonalEdgeStyle;rounded=0;orthogonalLoop=1;jettySize=auto;html=1;exitX=0.5;exitY=0;exitDx=0;exitDy=0;entryX=0.5;entryY=1;entryDx=0;entryDy=0;" edge="1" parent="1" source="Ijv4X9swHwSDKoMC9AaC-146" target="Ijv4X9swHwSDKoMC9AaC-117">
          <mxGeometry relative="1" as="geometry" />
        </mxCell>
        <mxCell id="Ijv4X9swHwSDKoMC9AaC-146" value="&lt;div&gt;Agent&lt;/div&gt;" style="rounded=1;whiteSpace=wrap;html=1;" vertex="1" parent="1">
          <mxGeometry x="650" y="752.67" width="120" height="60" as="geometry" />
        </mxCell>
        <mxCell id="Ijv4X9swHwSDKoMC9AaC-147" style="edgeStyle=orthogonalEdgeStyle;rounded=0;orthogonalLoop=1;jettySize=auto;html=1;entryX=0;entryY=0.5;entryDx=0;entryDy=0;startArrow=classic;startFill=1;" edge="1" parent="1">
          <mxGeometry relative="1" as="geometry">
            <mxPoint x="587" y="782.39" as="sourcePoint" />
            <mxPoint x="650" y="782.39" as="targetPoint" />
          </mxGeometry>
        </mxCell>
        <mxCell id="Ijv4X9swHwSDKoMC9AaC-148" value="check config" style="text;html=1;strokeColor=none;fillColor=none;align=center;verticalAlign=middle;whiteSpace=wrap;rounded=0;" vertex="1" parent="1">
          <mxGeometry x="666.5" y="782.67" width="87" height="30" as="geometry" />
        </mxCell>
        <mxCell id="Ijv4X9swHwSDKoMC9AaC-150" value="&lt;div&gt;Context + Memory&lt;br&gt;&lt;/div&gt;" style="text;html=1;strokeColor=none;fillColor=none;align=center;verticalAlign=middle;whiteSpace=wrap;rounded=0;fontColor=#000000;" vertex="1" parent="1">
          <mxGeometry x="653" y="631.67" width="117" height="30" as="geometry" />
        </mxCell>
        <mxCell id="Ijv4X9swHwSDKoMC9AaC-159" style="edgeStyle=orthogonalEdgeStyle;rounded=0;orthogonalLoop=1;jettySize=auto;html=1;exitX=1;exitY=0.5;exitDx=0;exitDy=0;entryX=1;entryY=0.5;entryDx=0;entryDy=0;" edge="1" parent="1" source="Ijv4X9swHwSDKoMC9AaC-151" target="Ijv4X9swHwSDKoMC9AaC-136">
          <mxGeometry relative="1" as="geometry">
            <Array as="points">
              <mxPoint x="1087" y="611.67" />
              <mxPoint x="1087" y="431.67" />
            </Array>
          </mxGeometry>
        </mxCell>
        <mxCell id="Ijv4X9swHwSDKoMC9AaC-176" style="edgeStyle=orthogonalEdgeStyle;rounded=0;orthogonalLoop=1;jettySize=auto;html=1;exitX=0;exitY=0.75;exitDx=0;exitDy=0;entryX=1.008;entryY=0.559;entryDx=0;entryDy=0;entryPerimeter=0;" edge="1" parent="1" source="Ijv4X9swHwSDKoMC9AaC-151" target="Ijv4X9swHwSDKoMC9AaC-117">
          <mxGeometry relative="1" as="geometry" />
        </mxCell>
        <mxCell id="Ijv4X9swHwSDKoMC9AaC-151" value="&lt;div&gt;Agent&lt;/div&gt;" style="rounded=1;whiteSpace=wrap;html=1;" vertex="1" parent="1">
          <mxGeometry x="907" y="583.67" width="120" height="60" as="geometry" />
        </mxCell>
        <mxCell id="Ijv4X9swHwSDKoMC9AaC-156" value="action" style="text;html=1;strokeColor=none;fillColor=none;align=center;verticalAlign=middle;whiteSpace=wrap;rounded=0;" vertex="1" parent="1">
          <mxGeometry x="780" y="562.67" width="60" height="30" as="geometry" />
        </mxCell>
        <mxCell id="Ijv4X9swHwSDKoMC9AaC-165" value="feedback" style="text;html=1;strokeColor=none;fillColor=none;align=center;verticalAlign=middle;whiteSpace=wrap;rounded=0;" vertex="1" parent="1">
          <mxGeometry x="787" y="601.67" width="60" height="30" as="geometry" />
        </mxCell>
        <mxCell id="Ijv4X9swHwSDKoMC9AaC-166" value="&lt;div style=&quot;font-size: 18px;&quot;&gt;Control&lt;/div&gt;&lt;div style=&quot;font-size: 18px;&quot;&gt;Loop&lt;/div&gt;" style="text;html=1;strokeColor=none;fillColor=none;align=center;verticalAlign=middle;whiteSpace=wrap;rounded=0;fontSize=18;fontColor=#0000FF;" vertex="1" parent="1">
          <mxGeometry x="1000" y="500" width="60" height="30" as="geometry" />
        </mxCell>
        <mxCell id="Ijv4X9swHwSDKoMC9AaC-167" value="action" style="text;html=1;strokeColor=none;fillColor=none;align=center;verticalAlign=middle;whiteSpace=wrap;rounded=0;" vertex="1" parent="1">
          <mxGeometry x="1017" y="583.67" width="60" height="30" as="geometry" />
        </mxCell>
        <mxCell id="Ijv4X9swHwSDKoMC9AaC-168" value="response" style="text;html=1;strokeColor=none;fillColor=none;align=center;verticalAlign=middle;whiteSpace=wrap;rounded=0;" vertex="1" parent="1">
          <mxGeometry x="907" y="462.67" width="60" height="30" as="geometry" />
        </mxCell>
        <mxCell id="Ijv4X9swHwSDKoMC9AaC-179" value="&lt;font color=&quot;#ff1f29&quot; style=&quot;font-size: 14px;&quot;&gt;Server or Clien side?&lt;/font&gt;" style="text;html=1;strokeColor=#d79b00;fillColor=#ffe6cc;align=center;verticalAlign=middle;whiteSpace=wrap;rounded=0;fontColor=#e01b24;fontSize=14;" vertex="1" parent="1">
          <mxGeometry x="895.5" y="372.67" width="143" height="30" as="geometry" />
        </mxCell>
        <mxCell id="Ijv4X9swHwSDKoMC9AaC-180" value="&lt;font color=&quot;#e01b24&quot; style=&quot;font-size: 17px;&quot;&gt;.deb file&lt;/font&gt;" style="text;html=1;strokeColor=#d79b00;fillColor=#ffe6cc;align=center;verticalAlign=middle;whiteSpace=wrap;rounded=0;" vertex="1" parent="1">
          <mxGeometry x="910" y="730" width="130" height="30" as="geometry" />
        </mxCell>
      </root>
    </mxGraphModel>
  </diagram>
</mxfile>
